<?xml version="1.0" encoding="UTF-8" standalone="no"?>
<!-- Created with Inkscape (http://www.inkscape.org/) -->

<svg
   xmlns:dc="http://purl.org/dc/elements/1.1/"
   xmlns:cc="http://creativecommons.org/ns#"
   xmlns:rdf="http://www.w3.org/1999/02/22-rdf-syntax-ns#"
   xmlns:svg="http://www.w3.org/2000/svg"
   xmlns="http://www.w3.org/2000/svg"
   xmlns:sodipodi="http://sodipodi.sourceforge.net/DTD/sodipodi-0.dtd"
   xmlns:inkscape="http://www.inkscape.org/namespaces/inkscape"
   width="26.346754mm"
   height="26.392796mm"
   viewBox="0 0 26.346754 26.392796"
   version="1.1"
   id="svg8"
   inkscape:version="0.92.4 (5da689c313, 2019-01-14)"
   sodipodi:docname="jolyu.svg">
  <defs
     id="defs2" />
  <sodipodi:namedview
     id="base"
     pagecolor="#ffffff"
     bordercolor="#666666"
     borderopacity="1.0"
     inkscape:pageopacity="0"
     inkscape:pageshadow="2"
     inkscape:zoom="2.8"
     inkscape:cx="185.79566"
     inkscape:cy="65.5743"
     inkscape:document-units="mm"
     inkscape:current-layer="g4535"
     showgrid="false"
     fit-margin-top="1"
     fit-margin-left="1"
     fit-margin-right="1"
     fit-margin-bottom="1"
     inkscape:pagecheckerboard="true"
     inkscape:window-width="2506"
     inkscape:window-height="1016"
     inkscape:window-x="54"
     inkscape:window-y="346"
     inkscape:window-maximized="1" />
  <metadata
     id="metadata5">
    <rdf:RDF>
      <cc:Work
         rdf:about="">
        <dc:format>image/svg+xml</dc:format>
        <dc:type
           rdf:resource="http://purl.org/dc/dcmitype/StillImage" />
        <dc:title />
      </cc:Work>
    </rdf:RDF>
  </metadata>
  <g
     inkscape:label="Layer 1"
     inkscape:groupmode="layer"
     id="layer1"
     transform="translate(-46.731134,-114.16176)">
    <g
       id="g4535">
      <g
         id="g4542">
        <g
           aria-label="
조류"
           transform="scale(0.89695783,1.1148796)"
           style="font-style:normal;font-weight:normal;font-size:13.05299759px;line-height:1.25;font-family:sans-serif;letter-spacing:0px;word-spacing:0px;fill:#000000;fill-opacity:1;stroke:none;stroke-width:0.32632494"
           id="text4520">
          <path
             d="m 54.373571,111.03304 c 2.114578,-0.45425 4.323138,-1.8483 5.21596,-3.79058 0.892822,1.92662 3.117046,3.30501 5.262952,3.72792 l 0.516897,-1.03379 C 62.925866,109.545 60.2474,107.61838 60.2474,105.3785 v -0.29761 h 4.652073 v -1.04946 H 54.263926 v 1.04946 h 4.652073 v 0.29761 c 0,2.23988 -2.662803,4.19783 -5.090653,4.60508 z m 5.858166,2.89775 v -3.39899 h -1.284411 v 3.39899 h -5.732858 v 1.06512 h 12.750126 v -1.06512 z"
             style="stroke-width:0.32632494"
             id="path1445" />
          <path
             d="m 77.523067,105.94239 h -8.34867 v 3.72792 h 9.962015 v -1.0338 h -8.677604 v -1.72299 h 8.364333 v -3.61827 h -9.695735 v 1.03379 h 8.395661 z m 2.835102,5.18463 H 67.608042 v 1.03379 h 3.320672 v 4.65208 h 1.284411 v -4.65208 h 3.539961 v 4.65208 h 1.284411 v -4.65208 h 3.320672 z"
             style="font-style:normal;font-variant:normal;font-weight:normal;font-stretch:normal;font-size:15.66354561px;font-family:'Open Sans';-inkscape-font-specification:'Open Sans, Normal';font-variant-ligatures:normal;font-variant-caps:normal;font-variant-numeric:normal;font-feature-settings:normal;text-align:start;writing-mode:lr-tb;text-anchor:start;stroke-width:0.32632494"
             id="path1447" />
        </g>
        <g
           aria-label="jolyu"
           style="font-style:normal;font-variant:normal;font-weight:normal;font-stretch:normal;font-size:10.58322811px;line-height:1.25;font-family:Ubuntu;-inkscape-font-specification:'Ubuntu, Normal';font-variant-ligatures:normal;font-variant-caps:normal;font-variant-numeric:normal;font-feature-settings:normal;text-align:start;letter-spacing:0px;word-spacing:0px;writing-mode:lr-tb;text-anchor:start;fill:#000000;fill-opacity:1;stroke:none;stroke-width:0.26458332"
           id="text4528">
          <path
             d="m 49.013116,139.54397 q -0.126998,0 -0.32808,-0.0317 -0.201081,-0.0317 -0.338663,-0.0847 l 0.126999,-0.80433 q 0.105832,0.0317 0.243414,0.0529 0.137582,0.0212 0.253997,0.0212 0.507995,0 0.71966,-0.3175 0.222248,-0.30691 0.222248,-0.91016 v -5.40803 h 0.98424 v 5.39745 q 0,1.05832 -0.486829,1.56632 -0.476245,0.51857 -1.396986,0.51857 z m 1.386403,-8.47716 q -0.264581,0 -0.455079,-0.16933 -0.179915,-0.17992 -0.179915,-0.47625 0,-0.29633 0.179915,-0.46566 0.190498,-0.17992 0.455079,-0.17992 0.264581,0 0.444496,0.17992 0.190498,0.16933 0.190498,0.46566 0,0.29633 -0.190498,0.47625 -0.179915,0.16933 -0.444496,0.16933 z"
             style="font-style:normal;font-variant:normal;font-weight:normal;font-stretch:normal;font-size:10.58322811px;font-family:Ubuntu;-inkscape-font-specification:'Ubuntu, Normal';font-variant-ligatures:normal;font-variant-caps:normal;font-variant-numeric:normal;font-feature-settings:normal;text-align:start;writing-mode:lr-tb;text-anchor:start;stroke-width:0.26458332"
             id="path1450" />
          <path
             d="m 57.45754,134.81327 q 0,0.65616 -0.190498,1.18532 -0.190498,0.52916 -0.539745,0.91016 -0.338663,0.381 -0.814908,0.59266 -0.476245,0.20108 -1.037156,0.20108 -0.560912,0 -1.037157,-0.20108 -0.476245,-0.21166 -0.825492,-0.59266 -0.338663,-0.381 -0.529161,-0.91016 -0.190498,-0.52916 -0.190498,-1.18532 0,-0.64558 0.190498,-1.17474 0.190498,-0.53974 0.529161,-0.92074 0.349247,-0.38099 0.825492,-0.58208 0.476245,-0.21166 1.037157,-0.21166 0.560911,0 1.037156,0.21166 0.476245,0.20109 0.814908,0.58208 0.349247,0.381 0.539745,0.92074 0.190498,0.52916 0.190498,1.17474 z m -1.026573,0 q 0,-0.93132 -0.423329,-1.47107 -0.412746,-0.55032 -1.132405,-0.55032 -0.71966,0 -1.142989,0.55032 -0.412746,0.53975 -0.412746,1.47107 0,0.93133 0.412746,1.48165 0.423329,0.53975 1.142989,0.53975 0.719659,0 1.132405,-0.53975 0.423329,-0.55032 0.423329,-1.48165 z"
             style="font-style:normal;font-variant:normal;font-weight:normal;font-stretch:normal;font-size:10.58322811px;font-family:Ubuntu;-inkscape-font-specification:'Ubuntu, Normal';font-variant-ligatures:normal;font-variant-caps:normal;font-variant-numeric:normal;font-feature-settings:normal;text-align:start;writing-mode:lr-tb;text-anchor:start;stroke-width:0.26458332"
             id="path1452" />
          <path
             d="m 60.493273,137.67074 q -0.910158,-0.0212 -1.291154,-0.39158 -0.380996,-0.37041 -0.380996,-1.15357 v -6.60393 l 0.98424,-0.16933 v 6.61451 q 0,0.24342 0.04233,0.40217 0.04233,0.15874 0.137582,0.25399 0.09525,0.0953 0.253998,0.14817 0.158748,0.0423 0.391579,0.0741 z"
             style="font-style:normal;font-variant:normal;font-weight:normal;font-stretch:normal;font-size:10.58322811px;font-family:Ubuntu;-inkscape-font-specification:'Ubuntu, Normal';font-variant-ligatures:normal;font-variant-caps:normal;font-variant-numeric:normal;font-feature-settings:normal;text-align:start;writing-mode:lr-tb;text-anchor:start;stroke-width:0.26458332"
             id="path1454" />
          <path
             d="m 61.090564,138.59148 q 0.116415,0.0529 0.29633,0.0953 0.190498,0.0529 0.370413,0.0529 0.582078,0 0.910158,-0.26458 0.32808,-0.254 0.592661,-0.83608 -0.666744,-1.26998 -1.248821,-2.68814 -0.571495,-1.42873 -0.952491,-2.88922 h 1.058323 q 0.116415,0.47625 0.275164,1.02658 0.169332,0.55032 0.370413,1.1324 0.201081,0.58208 0.433912,1.16416 0.232831,0.58207 0.486829,1.12182 0.402162,-1.11124 0.698493,-2.20131 0.29633,-1.09008 0.560911,-2.24365 h 1.01599 q -0.380996,1.55574 -0.846658,2.99506 -0.465663,1.42873 -1.005407,2.67755 -0.211665,0.47625 -0.444496,0.81491 -0.222248,0.34925 -0.497411,0.5715 -0.275164,0.22224 -0.624411,0.32808 -0.338663,0.10583 -0.772576,0.10583 -0.116415,0 -0.243414,-0.0212 -0.126999,-0.0106 -0.253997,-0.0423 -0.116416,-0.0212 -0.222248,-0.0529 -0.09525,-0.0318 -0.137582,-0.0529 z"
             style="font-style:normal;font-variant:normal;font-weight:normal;font-stretch:normal;font-size:10.58322811px;font-family:Ubuntu;-inkscape-font-specification:'Ubuntu, Normal';font-variant-ligatures:normal;font-variant-caps:normal;font-variant-numeric:normal;font-feature-settings:normal;text-align:start;writing-mode:lr-tb;text-anchor:start;stroke-width:0.26458332"
             id="path1456" />
          <path
             d="m 71.36787,137.40616 q -0.338663,0.0847 -0.899574,0.17992 -0.550328,0.0952 -1.280571,0.0952 -0.634994,0 -1.068906,-0.17992 -0.433912,-0.1905 -0.698493,-0.52916 -0.264581,-0.33866 -0.380996,-0.79374 -0.116416,-0.46566 -0.116416,-1.02658 v -3.0903 h 0.98424 v 2.87864 q 0,1.00541 0.317497,1.43932 0.317497,0.43391 1.068906,0.43391 0.158749,0 0.32808,-0.0106 0.169332,-0.0106 0.317497,-0.0212 0.148165,-0.0212 0.264581,-0.0317 0.126999,-0.0212 0.179915,-0.0423 v -4.64604 h 0.98424 z"
             style="font-style:normal;font-variant:normal;font-weight:normal;font-stretch:normal;font-size:10.58322811px;font-family:Ubuntu;-inkscape-font-specification:'Ubuntu, Normal';font-variant-ligatures:normal;font-variant-caps:normal;font-variant-numeric:normal;font-feature-settings:normal;text-align:start;writing-mode:lr-tb;text-anchor:start;stroke-width:0.26458332"
             id="path1458" />
        </g>
      </g>
    </g>
  </g>
</svg>
